<svg xmlns="http://www.w3.org/2000/svg" width="1100" height="240" viewBox="0 0 1100 240" role="img" aria-labelledby="title desc"><title id="title">Hrithik's technology stack</title><desc id="desc">A themed panel listing SQL, Python, Pandas, PostgreSQL, SQLite, JavaScript, React, Node.js, Express, Git, GitHub, Vite, and PowerShell.</desc><rect x="1" y="1" width="1098" height="238" rx="12" fill="#07152d" stroke="#d7b35c" stroke-opacity=".6"/><text x="32" y="47" fill="#d7b35c" font-family="Consolas, monospace" font-size="20" font-weight="700" letter-spacing="4">TECH STACK // THE ARMOURY</text><path d="M32 66h1036" stroke="#3976d6" stroke-opacity=".5"/><g font-family="Consolas, monospace" font-size="14" font-weight="700" text-anchor="middle"><g fill="#02050b" stroke="#3976d6"><rect x="32" y="92" width="130" height="48" rx="8"/><rect x="177" y="92" width="130" height="48" rx="8"/><rect x="322" y="92" width="130" height="48" rx="8"/><rect x="467" y="92" width="130" height="48" rx="8"/><rect x="612" y="92" width="130" height="48" rx="8"/><rect x="757" y="92" width="130" height="48" rx="8"/><rect x="902" y="92" width="166" height="48" rx="8"/></g><g fill="#f4ead5"><text x="97" y="122">SQL</text><text x="242" y="122">PYTHON</text><text x="387" y="122">PANDAS</text><text x="532" y="122">POSTGRESQL</text><text x="677" y="122">SQLITE</text><text x="822" y="122">JAVASCRIPT</text><text x="985" y="122">REACT</text></g><g fill="#02050b" stroke="#d7b35c"><rect x="104" y="163" width="130" height="48" rx="8"/><rect x="249" y="163" width="130" height="48" rx="8"/><rect x="394" y="163" width="130" height="48" rx="8"/><rect x="539" y="163" width="130" height="48" rx="8"/><rect x="684" y="163" width="130" height="48" rx="8"/><rect x="829" y="163" width="168" height="48" rx="8"/></g><g fill="#f4ead5"><text x="169" y="193">NODE.JS</text><text x="314" y="193">EXPRESS</text><text x="459" y="193">GIT</text><text x="604" y="193">GITHUB</text><text x="749" y="193">VITE</text><text x="913" y="193">POWERSHELL</text></g></g></svg>
